<svg xmlns="http://www.w3.org/2000/svg" width="2030" height="1953" viewBox="0 0 2030 1953">
  <g id="background" transform="translate(58 296)">
    <circle id="icon4" cx="720.5" cy="720.5" r="720.5" transform="translate(531 216)" fill="#e5e5e5"/>
    <circle id="icon4-2" data-name="icon4" cx="534.5" cy="534.5" r="534.5" transform="translate(-58 -296)" fill="#f0f0f0"/>
    <path id="Path_1680" data-name="Path 1680" d="M13.577,0,0,23.3H27.153Z" transform="matrix(0.259, -0.966, 0.966, 0.259, 199.567, 593.625)" fill="#ff3e39"/>
    <path id="Path_1682" data-name="Path 1682" d="M7.8,0,0,13.39H15.6Z" transform="matrix(-0.966, -0.259, 0.259, -0.966, 1456.904, 174.845)" fill="#ff3e39"/>
    <path id="Path_1681" data-name="Path 1681" d="M11.625,0,0,19.952H23.25Z" transform="matrix(0.966, -0.259, 0.259, 0.966, 1075.159, 1116.055)" fill="#40a4fe"/>
    <rect id="Rectangle_412" data-name="Rectangle 412" width="18.687" height="18.687" transform="translate(142.725 130.862) rotate(-45)" fill="#40a4fe"/>
    <ellipse id="Ellipse_65" data-name="Ellipse 65" cx="7.107" cy="7.107" rx="7.107" ry="7.107" transform="translate(167.351 1039.751)" fill="#39de99"/>
    <ellipse id="Ellipse_68" data-name="Ellipse 68" cx="7.107" cy="7.107" rx="7.107" ry="7.107" transform="translate(551.971 65.724)" fill="#39de99"/>
    <ellipse id="Ellipse_67" data-name="Ellipse 67" cx="9.75" cy="9.75" rx="9.75" ry="9.75" transform="translate(1379.107 449.105)" fill="#40a4fe"/>
    <rect id="Rectangle_413" data-name="Rectangle 413" width="20" height="20" transform="translate(1464.786 780.208)" fill="#39de99"/>
  </g>
</svg>
